<svg width="1920" height="41" viewBox="0 0 1920 41" fill="none" xmlns="http://www.w3.org/2000/svg">
<path d="M1896 30.8739L1872 40.472L1848 30.8739L1823.99 40.472L1800 30.8739L1776 40.472L1752 30.8739L1728 40.472L1704.01 30.8739L1680 40.472L1656 30.8739L1632 40.472L1608 30.8739L1584.01 40.472L1560 30.8739L1536 40.472L1511.99 30.8739L1488 40.472L1464 30.8739L1440 40.472L1416 30.8739L1392.01 40.472L1368 30.8739L1344 40.472L1320 30.8739L1296 40.472L1272.01 30.8739L1248 40.472L1224 30.8739L1200 40.472L1176 30.8739L1152 40.472L1128 30.8739L1104 40.472L1079.99 30.8739L1056 40.472L1032 30.8739L1008 40.472L984.001 30.8739L960.006 40.2628L935.999 30.8739L912.003 40.472L887.996 30.8739L864.001 40.472L840.005 30.8739L815.998 40.472L792.003 30.8739L767.995 40.472L744 30.8739L720.005 40.472L695.997 30.8739L672.002 40.472L647.994 30.8739L623.999 40.472L600.004 30.8739L575.996 40.472L552.001 30.8739L528.006 40.472L503.998 30.8739L480.003 40.472L455.996 30.8739L432 40.472L408.005 30.8739L383.998 40.472L360.002 30.8739L335.995 40.472L312 30.8739L288.004 40.472L263.997 30.8739L240.002 40.472L216.006 30.8739L191.999 40.472L168.004 30.8739L143.996 40.472L120.001 30.8739L96.0055 40.472L71.998 30.8739L48.0028 40.472L23.9952 30.8739L0 40.2628V0H960.006H1920V40.2628L1896 30.8739Z" fill="url(#paint0_linear_938_2579)"/>
<defs>
<linearGradient id="paint0_linear_938_2579" x1="2190.92" y1="16.0451" x2="-185.101" y2="16.0451" gradientUnits="userSpaceOnUse">
<stop stop-color="#DFFF5A"/>
<stop offset="0.82" stop-color="#6FB8EF"/>
</linearGradient>
</defs>
</svg>
