<svg width="1920" height="41" viewBox="0 0 1920 41" fill="none" xmlns="http://www.w3.org/2000/svg">
<path d="M1896 9.59809L1872 0L1848 9.59809L1823.99 0L1800 9.59809L1776 0L1752 9.59809L1728 0L1704.01 9.59809L1680 0L1656 9.59809L1632 0L1608 9.59809L1584.01 0L1560 9.59809L1536 0L1511.99 9.59809L1488 0L1464 9.59809L1440 0L1416 9.59809L1392.01 0L1368 9.59809L1344 0L1320 9.59809L1296 0L1272.01 9.59809L1248 0L1224 9.59809L1200 0L1176 9.59809L1152 0L1128 9.59809L1104 0L1079.99 9.59809L1056 0L1032 9.59809L1008 0L984.001 9.59809L960.006 0.209189L935.999 9.59809L912.003 0L887.996 9.59809L864.001 0L840.005 9.59809L815.998 0L792.003 9.59809L767.995 0L744 9.59809L720.005 0L695.997 9.59809L672.002 0L647.994 9.59809L623.999 0L600.004 9.59809L575.996 0L552.001 9.59809L528.006 0L503.998 9.59809L480.003 0L455.996 9.59809L432 0L408.005 9.59809L383.998 0L360.002 9.59809L335.995 0L312 9.59809L288.004 0L263.997 9.59809L240.002 0L216.006 9.59809L191.999 0L168.004 9.59809L143.996 0L120.001 9.59809L96.0055 0L71.998 9.59809L48.0028 0L23.9952 9.59809L0 0.209189V40.472H960.006H1920V0.209189L1896 9.59809Z" fill="url(#paint0_linear_938_2482)"/>
<defs>
<linearGradient id="paint0_linear_938_2482" x1="2190.92" y1="16.0451" x2="-185.101" y2="16.0451" gradientUnits="userSpaceOnUse">
<stop stop-color="#DFFF5A"/>
<stop offset="0.82" stop-color="#6FB8EF"/>
</linearGradient>
</defs>
</svg>
