<svg width="1920" height="132" viewBox="0 0 1920 132" fill="none" xmlns="http://www.w3.org/2000/svg">
<path opacity="0.25" d="M0 0L-4.8335e-06 55.2888C76.464 81.8045 165.744 93.7127 252.8 88.7321C365.376 82.3182 470.928 48.9466 583.68 43.9421C701.824 38.7345 819.744 64.1036 932.8 86.0567C1043.63 107.556 1154.08 115.773 1267.84 101.679C1325.68 94.5131 1379.6 80.3714 1434.96 66.6358C1583.18 29.8602 1780.8 -17.0678 1920 62.6704L1920 0.000167852L0 0Z" fill="#DFFF59"/>
<path opacity="0.5" d="M0 0L-1.65085e-06 18.8835C20.8 44.0973 44.224 67.9137 76.304 86.0566C159.056 132.901 264 132.579 359.328 109.383C409.168 97.2601 455.472 78.2453 502.8 61.8461C568.272 39.1525 638.368 6.9037 712.128 2.52025C770.144 -0.88379 825.568 13.7715 869.888 40.2156C920.72 70.5414 969.6 114.268 1035.7 127.407C1100.4 140.294 1165.86 119.416 1226.3 98.4068C1286.75 77.3973 1346.56 51.8252 1413.38 46.9879C1508.94 40.0006 1594.62 74.3158 1683.62 93.3785C1731.94 103.722 1778.02 100.748 1822.96 84.4204C1858.85 71.4134 1899.76 52.2552 1920 25.6081L1920 0.000167852L0 0Z" fill="#DFFF59"/>
<path d="M0 0L-5.87873e-07 6.72448C239.888 70.4697 502.544 85.1847 761.328 50.8457C830.128 41.7205 896.096 26.8144 965.504 19.2419C1059.9 8.93421 1145.47 33.8614 1230.4 61.5237C1324.69 92.2318 1417.6 113.755 1521.92 107.496C1660.37 99.1355 1797.86 52.9002 1920 6.19911L1920 0.000167852L0 0Z" fill="#DFFF59"/>
</svg>
